HIERARCHY
ROOT Hips
{
	OFFSET 0.000000 83.214638 0.000000
	CHANNELS 6 Xposition Yposition Zposition Xrotation Yrotation Zrotation
	JOINT Pelvis
	{
		OFFSET 0.000000 0.000000 0.000000
		CHANNELS 3 Xrotation Yrotation Zrotation
		JOINT LeftUpLeg
		{
			OFFSET 8.479700 -4.795502 -0.379100
			CHANNELS 3 Xrotation Yrotation Zrotation
			JOINT LeftLeg
			{
				OFFSET 0.024144 -32.555107 0.112900
				CHANNELS 3 Xrotation Yrotation Zrotation
				JOINT LeftFoot
				{
					OFFSET -0.024144 -32.638630 -3.012600
					CHANNELS 3 Xrotation Yrotation Zrotation
					JOINT LeftToeBase
					{
						OFFSET 0.970200 -13.225400 11.864200
						CHANNELS 3 Xrotation Yrotation Zrotation
						End Site
						{
							OFFSET 0.000000 12.319262 0.000000
						}
					}
					JOINT LFootTongue
					{
						OFFSET 1.142400 -1.059800 6.665200
						CHANNELS 3 Xrotation Yrotation Zrotation
						End Site
						{
							OFFSET 0.000000 12.319262 0.000000
						}
					}
				}
				JOINT LeftPantLeg
				{
					OFFSET 0.918482 -16.533964 -2.284700
					CHANNELS 3 Xrotation Yrotation Zrotation
					End Site
					{
						OFFSET 0.350399 24.744368 0.000000
					}
				}
			}
		}
		JOINT RightUpLeg
		{
			OFFSET -8.479700 -4.795502 -0.379100
			CHANNELS 3 Xrotation Yrotation Zrotation
			JOINT RightLeg
			{
				OFFSET -0.023144 -32.555092 0.112900
				CHANNELS 3 Xrotation Yrotation Zrotation
				JOINT RightFoot
				{
					OFFSET 0.023144 -32.638641 -3.012700
					CHANNELS 3 Xrotation Yrotation Zrotation
					JOINT RightToeBase
					{
						OFFSET -0.970200 -13.225400 11.864200
						CHANNELS 3 Xrotation Yrotation Zrotation
						End Site
						{
							OFFSET 0.000000 12.319244 0.000000
						}
					}
					JOINT RFootTongue
					{
						OFFSET -1.142200 -1.059800 6.665200
						CHANNELS 3 Xrotation Yrotation Zrotation
						End Site
						{
							OFFSET 0.000000 12.319243 0.000000
						}
					}
				}
				JOINT RightPantLeg
				{
					OFFSET -0.919482 -16.533978 -2.284800
					CHANNELS 3 Xrotation Yrotation Zrotation
					End Site
					{
						OFFSET -0.350400 24.744419 0.000000
					}
				}
			}
		}
	}
	JOINT Spine
	{
		OFFSET 0.000000 7.722000 1.166200
		CHANNELS 3 Xrotation Yrotation Zrotation
		JOINT Spine1
		{
			OFFSET 0.000000 12.024101 0.248800
			CHANNELS 3 Xrotation Yrotation Zrotation
			JOINT Spine2
			{
				OFFSET 0.000000 11.502998 -0.491200
				CHANNELS 3 Xrotation Yrotation Zrotation
				JOINT Neck
				{
					OFFSET 0.000000 18.430702 -3.123100
					CHANNELS 3 Xrotation Yrotation Zrotation
					JOINT Head
					{
						OFFSET 0.000000 9.051102 1.034000
						CHANNELS 3 Xrotation Yrotation Zrotation
						JOINT HairB
						{
							OFFSET 0.208400 24.786102 24.822300
							CHANNELS 3 Xrotation Yrotation Zrotation
							End Site
							{
								OFFSET 0.000000 32.263779 0.000000
							}
						}
						JOINT HairA
						{
							OFFSET -7.081100 24.428299 23.196600
							CHANNELS 3 Xrotation Yrotation Zrotation
							End Site
							{
								OFFSET 0.000000 32.263779 0.000000
							}
						}
						JOINT Hat
						{
							OFFSET 16.728800 15.048294 -15.439601
							CHANNELS 3 Xrotation Yrotation Zrotation
							End Site
							{
								OFFSET 0.000000 32.263779 0.000000
							}
						}
					}
				}
				JOINT LeftShoulder
				{
					OFFSET 6.197800 13.665199 -4.064700
					CHANNELS 3 Xrotation Yrotation Zrotation
					JOINT LeftArm
					{
						OFFSET 7.778100 -0.187103 -1.709300
						CHANNELS 3 Xrotation Yrotation Zrotation
						JOINT LeftForeArm
						{
							OFFSET 22.049376 0.000000 0.000000
							CHANNELS 3 Xrotation Yrotation Zrotation
							JOINT LeftHand
							{
								OFFSET 23.009392 0.000000 0.000000
								CHANNELS 3 Xrotation Yrotation Zrotation
								JOINT LeftHandThumb1
								{
									OFFSET 3.507191 -2.063065 3.133727
									CHANNELS 3 Xrotation Yrotation Zrotation
									JOINT LeftHandThumb2
									{
										OFFSET 3.101337 -1.790558 1.790558
										CHANNELS 3 Xrotation Yrotation Zrotation
										JOINT LeftHandThumb3
										{
											OFFSET 3.058640 -1.765907 1.765906
											CHANNELS 3 Xrotation Yrotation Zrotation
											End Site
											{
												OFFSET -0.415260 3.926476 -0.049563
											}
										}
									}
								}
								JOINT LeftHandIndex1
								{
									OFFSET 11.334419 -0.901459 3.706815
									CHANNELS 3 Xrotation Yrotation Zrotation
									JOINT LeftHandIndex2
									{
										OFFSET 3.283112 0.000000 0.000000
										CHANNELS 3 Xrotation Yrotation Zrotation
										JOINT LeftHandIndex3
										{
											OFFSET 3.323853 0.000000 0.000000
											CHANNELS 3 Xrotation Yrotation Zrotation
											End Site
											{
												OFFSET -1.135597 3.097809 0.402452
											}
										}
									}
								}
								JOINT LeftHandMiddle1
								{
									OFFSET 11.335861 0.000000 0.000000
									CHANNELS 3 Xrotation Yrotation Zrotation
									JOINT LeftHandMiddle2
									{
										OFFSET 3.410492 0.000000 0.000000
										CHANNELS 3 Xrotation Yrotation Zrotation
										JOINT LeftHandMiddle3
										{
											OFFSET 3.312172 0.000000 0.000000
											CHANNELS 3 Xrotation Yrotation Zrotation
											End Site
											{
												OFFSET -1.150200 3.080154 0.400270
											}
										}
									}
								}
								JOINT LeftHandRing1
								{
									OFFSET 11.514786 -0.013176 -3.003090
									CHANNELS 3 Xrotation Yrotation Zrotation
									JOINT LeftHandRing2
									{
										OFFSET 3.053307 0.000000 0.000000
										CHANNELS 3 Xrotation Yrotation Zrotation
										JOINT LeftHandRing3
										{
											OFFSET 3.295807 0.000000 0.000000
											CHANNELS 3 Xrotation Yrotation Zrotation
											End Site
											{
												OFFSET -1.281006 3.013344 0.375733
											}
										}
									}
								}
								JOINT LeftHandPinky1
								{
									OFFSET 10.518692 -0.960396 -5.730441
									CHANNELS 3 Xrotation Yrotation Zrotation
									JOINT LeftHandPinky2
									{
										OFFSET 2.861649 0.000000 0.000000
										CHANNELS 3 Xrotation Yrotation Zrotation
										JOINT LeftHandPinky3
										{
											OFFSET 2.863380 0.000000 0.000000
											CHANNELS 3 Xrotation Yrotation Zrotation
											End Site
											{
												OFFSET -0.843597 2.711159 0.369971
											}
										}
									}
								}
							}
							JOINT LSleeve
							{
								OFFSET 6.676277 -0.344902 -1.011730
								CHANNELS 3 Xrotation Yrotation Zrotation
								End Site
								{
									OFFSET 0.000000 14.885353 0.000000
								}
							}
						}
					}
				}
				JOINT RightShoulder
				{
					OFFSET -6.197800 13.665199 -4.064700
					CHANNELS 3 Xrotation Yrotation Zrotation
					JOINT RightArm
					{
						OFFSET -7.778100 -0.187103 -1.709300
						CHANNELS 3 Xrotation Yrotation Zrotation
						JOINT RightForeArm
						{
							OFFSET -22.049376 0.000000 0.000000
							CHANNELS 3 Xrotation Yrotation Zrotation
							JOINT RightHand
							{
								OFFSET -23.009392 0.000000 0.000000
								CHANNELS 3 Xrotation Yrotation Zrotation
								JOINT RightHandThumb1
								{
									OFFSET -3.507191 -2.063065 3.133727
									CHANNELS 3 Xrotation Yrotation Zrotation
									JOINT RightHandThumb2
									{
										OFFSET -3.101337 -1.790558 1.790558
										CHANNELS 3 Xrotation Yrotation Zrotation
										JOINT RightHandThumb3
										{
											OFFSET -3.058640 -1.765907 1.765906
											CHANNELS 3 Xrotation Yrotation Zrotation
											End Site
											{
												OFFSET 0.415260 3.926476 -0.049563
											}
										}
									}
								}
								JOINT RightHandIndex1
								{
									OFFSET -11.334419 -0.901459 3.706815
									CHANNELS 3 Xrotation Yrotation Zrotation
									JOINT RightHandIndex2
									{
										OFFSET -3.283112 0.000000 0.000000
										CHANNELS 3 Xrotation Yrotation Zrotation
										JOINT RightHandIndex3
										{
											OFFSET -3.323853 0.000000 0.000000
											CHANNELS 3 Xrotation Yrotation Zrotation
											End Site
											{
												OFFSET 1.135597 3.097809 0.402452
											}
										}
									}
								}
								JOINT RightHandMiddle1
								{
									OFFSET -11.335861 0.000000 0.000000
									CHANNELS 3 Xrotation Yrotation Zrotation
									JOINT RightHandMiddle2
									{
										OFFSET -3.410492 0.000000 0.000000
										CHANNELS 3 Xrotation Yrotation Zrotation
										JOINT RightHandMiddle3
										{
											OFFSET -3.312172 0.000000 0.000000
											CHANNELS 3 Xrotation Yrotation Zrotation
											End Site
											{
												OFFSET 1.150200 3.080154 0.400270
											}
										}
									}
								}
								JOINT RightHandRing1
								{
									OFFSET -11.514786 -0.013176 -3.003090
									CHANNELS 3 Xrotation Yrotation Zrotation
									JOINT RightHandRing2
									{
										OFFSET -3.053307 0.000000 0.000000
										CHANNELS 3 Xrotation Yrotation Zrotation
										JOINT RightHandRing3
										{
											OFFSET -3.295807 0.000000 0.000000
											CHANNELS 3 Xrotation Yrotation Zrotation
											End Site
											{
												OFFSET 1.281006 3.013344 0.375733
											}
										}
									}
								}
								JOINT RightHandPinky1
								{
									OFFSET -10.518692 -0.960396 -5.730441
									CHANNELS 3 Xrotation Yrotation Zrotation
									JOINT RightHandPinky2
									{
										OFFSET -2.861649 0.000000 0.000000
										CHANNELS 3 Xrotation Yrotation Zrotation
										JOINT RightHandPinky3
										{
											OFFSET -2.863380 0.000000 0.000000
											CHANNELS 3 Xrotation Yrotation Zrotation
											End Site
											{
												OFFSET 0.843597 2.711159 0.369971
											}
										}
									}
								}
							}
							JOINT RSleeve
							{
								OFFSET -6.676277 -0.344902 -1.011730
								CHANNELS 3 Xrotation Yrotation Zrotation
								End Site
								{
									OFFSET 0.000000 14.885353 0.000000
								}
							}
						}
					}
				}
				JOINT Backpack
				{
					OFFSET 0.000000 -2.471497 36.677502
					CHANNELS 3 Xrotation Yrotation Zrotation
					End Site
					{
						OFFSET 0.000000 20.427315 0.000000
					}
				}
				JOINT Hood
				{
					OFFSET 0.000000 18.754097 -10.431000
					CHANNELS 3 Xrotation Yrotation Zrotation
					JOINT Hood1
					{
						OFFSET 0.000000 -5.011002 -7.685901
						CHANNELS 3 Xrotation Yrotation Zrotation
						End Site
						{
							OFFSET 0.000000 9.175140 0.000000
						}
					}
				}
				JOINT LHoodieString
				{
					OFFSET 5.250500 16.397697 3.089900
					CHANNELS 3 Xrotation Yrotation Zrotation
					JOINT LHoodieString1
					{
						OFFSET 0.257700 -6.364304 3.694600
						CHANNELS 3 Xrotation Yrotation Zrotation
						JOINT LHoodieString2
						{
							OFFSET 0.000000 -9.643799 2.679100
							CHANNELS 3 Xrotation Yrotation Zrotation
							End Site
							{
								OFFSET 0.000000 10.009018 0.000000
							}
						}
					}
				}
				JOINT RHoodieString
				{
					OFFSET -5.250500 16.397697 3.089900
					CHANNELS 3 Xrotation Yrotation Zrotation
					JOINT RHoodieString1
					{
						OFFSET -0.257700 -6.364304 3.694600
						CHANNELS 3 Xrotation Yrotation Zrotation
						JOINT RHoodieString2
						{
							OFFSET 0.000000 -9.643799 2.679100
							CHANNELS 3 Xrotation Yrotation Zrotation
							End Site
							{
								OFFSET 0.000000 10.009018 0.000000
							}
						}
					}
				}
			}
			JOINT LBackpack_Strap
			{
				OFFSET 15.223200 -7.719803 -6.610900
				CHANNELS 3 Xrotation Yrotation Zrotation
				End Site
				{
					OFFSET 0.000000 16.040596 0.000000
				}
			}
			JOINT RBackpack_Strap
			{
				OFFSET -15.223000 -7.719803 -6.610900
				CHANNELS 3 Xrotation Yrotation Zrotation
				End Site
				{
					OFFSET 0.000000 16.040596 0.000000
				}
			}
		}
	}
	JOINT BoyFacialAnim_Joint
	{
		OFFSET 1.000000 -82.208099 -1.550900
		CHANNELS 3 Xrotation Yrotation Zrotation
		End Site
		{
			OFFSET 0.000000 30.012791 0.000000
		}
	}
}
MOTION
Frames: 4
Frame Time: 0.033333
-0.244122 61.212845 0.797588 -0.901165 -17.217444 0.525037 0.000000 0.000002 0.000000 -79.189083 10.535826 10.078551 109.117921 3.462564 2.008546 12.305366 0.008506 7.223348 -0.000002 -0.000000 -0.000000 -0.000002 -0.000000 0.000000 0.000004 0.000001 0.000000 -66.497929 -3.541683 7.918349 79.955431 -8.599300 -10.061540 -11.617669 -14.818568 4.543794 0.000000 0.000000 -0.000000 0.000000 0.000000 -0.000000 -0.000000 -0.000001 0.000000 55.138495 -4.795459 6.485019 7.038466 -0.200677 0.500271 7.039126 -0.217948 0.475496 -16.392290 2.098866 -2.496622 -18.858970 3.568694 13.866185 -0.000001 -0.000001 0.000003 -0.000001 -0.000001 0.000003 -0.000001 -0.000001 0.000003 13.745056 -25.137799 22.867651 -111.707983 -14.291107 -35.809268 -0.000031 -73.375582 -0.000043 -123.200234 -4.441764 32.030992 4.709221 9.560363 3.111991 19.473184 -1.474895 7.636919 0.000001 -0.000002 0.000002 -0.212816 3.933725 -36.747138 2.942143 5.078914 -60.144624 0.000002 0.000001 -0.000002 0.405915 5.507066 -52.453179 3.387140 5.308595 -65.057449 0.000001 -0.000001 0.000004 -0.074380 5.736787 -61.061420 4.055019 5.569501 -72.094901 0.000004 -0.000002 -0.000002 -6.565567 4.545140 -72.425215 3.299637 5.267226 -64.107841 0.000002 -0.000001 -0.000000 -0.000002 0.000004 0.000003 0.397522 29.055365 10.523024 -74.740984 44.834735 42.428681 -0.000050 109.274223 0.000038 -36.429350 -34.046943 -23.720492 8.377163 -4.904126 11.022003 21.620195 -18.183890 -18.379216 -0.000000 -0.000002 0.000001 -0.920033 1.683585 12.434990 0.748126 -2.533459 32.898265 -0.000000 0.000001 0.000000 3.413053 -7.186267 51.650242 6.296816 -4.359578 110.634701 0.000001 0.000001 -0.000005 -3.349046 -2.600437 57.010588 5.440872 -4.590883 99.698174 0.000001 -0.000000 0.000000 -3.996434 -3.303922 64.593857 4.058842 -4.618686 82.610530 -0.000000 -0.000001 -0.000002 -0.000000 0.000001 0.000001 -0.000001 0.000001 -0.000000 -0.000001 0.000001 -0.000000 -0.000001 0.000001 -0.000000 -0.000001 0.000001 -0.000000 -0.000001 0.000001 -0.000000 0.000001 -0.000000 -0.000000 -0.000001 0.000001 -0.000000 -0.000001 0.000001 -0.000000 0.000001 -0.000000 -0.000000 0.000001 -0.000000 0.000001 0.000001 -0.000000 0.000001 0.000000 0.000002 0.000000 
-0.130843 62.139374 3.228581 -1.902448 -17.758905 1.651592 0.000000 0.000001 -0.000000 -79.379653 9.758871 10.765532 101.185510 2.239549 2.007639 7.282178 2.009200 5.275466 -0.000000 0.000000 0.000000 -0.000000 0.000000 0.000000 0.000001 0.000000 0.000001 -63.320218 -2.484360 6.499208 81.206503 -8.203073 -10.010470 -15.150896 -14.510621 2.713448 -0.000000 -0.000000 -0.000000 -0.000000 -0.000000 -0.000000 -0.000002 0.000003 -0.000000 56.473165 -5.918726 4.865164 7.248199 -0.223504 0.259171 7.247904 -0.234497 0.232006 -16.983108 1.821820 -1.737507 -18.765542 3.622712 13.894190 -0.000000 0.000000 -0.000000 -0.000000 0.000000 -0.000000 -0.000000 0.000000 -0.000000 13.592189 -24.555020 22.801183 -113.727895 -15.093531 -37.369601 -0.000100 -72.343806 -0.000117 -121.859550 -3.503549 32.509778 4.709219 9.560369 3.111992 19.473185 -1.474891 7.636919 -0.000002 -0.000002 0.000000 -0.212817 3.933724 -36.747138 2.942142 5.078909 -60.144617 -0.000000 0.000001 -0.000002 0.405913 5.507071 -52.453175 3.387136 5.308597 -65.057443 0.000002 0.000000 0.000000 -0.074379 5.736790 -61.061420 4.055022 5.569495 -72.094907 0.000004 -0.000002 0.000001 -6.565568 4.545146 -72.425209 3.299637 5.267227 -64.107828 -0.000002 -0.000001 -0.000002 -0.000000 0.000004 -0.000002 0.408428 29.283637 10.471652 -75.834586 44.725189 42.779377 0.000225 109.315040 -0.000226 -36.447925 -33.768401 -24.001204 8.377164 -4.904125 11.022003 21.620195 -18.183888 -18.379218 0.000001 -0.000002 0.000000 -0.920034 1.683586 12.434989 0.748125 -2.533461 32.898269 -0.000002 -0.000001 0.000003 3.413053 -7.186267 51.650242 6.296816 -4.359580 110.634694 0.000001 0.000001 -0.000002 -3.349046 -2.600436 57.010592 5.440872 -4.590883 99.698168 -0.000000 0.000000 -0.000001 -3.996434 -3.303922 64.593857 4.058844 -4.618681 82.610523 -0.000002 -0.000001 0.000002 -0.000001 -0.000002 -0.000002 -0.000001 0.000001 0.000002 -0.000001 0.000001 0.000002 -0.000001 0.000001 0.000002 -0.000001 0.000001 0.000002 -0.000001 0.000001 0.000002 0.000001 -0.000000 0.000001 -0.000001 0.000001 0.000002 -0.000001 0.000001 0.000002 0.000001 -0.000000 0.000001 0.000001 -0.000001 -0.000000 0.000001 -0.000001 -0.000000 0.000000 0.000001 -0.000000 
-0.066076 62.845993 5.707345 -2.382385 -18.241683 2.744443 -0.000000 -0.000001 -0.000000 -78.916873 9.428646 11.405358 89.129836 -0.090453 2.016172 6.351040 2.629122 2.967467 -0.000001 -0.000000 0.000000 -0.000001 -0.000000 0.000000 -0.000001 0.000001 0.000000 -60.880843 -1.599461 5.267546 82.533643 -7.277141 -9.957646 -18.423967 -15.221913 0.335175 0.000000 -0.000004 0.000000 0.000000 -0.000004 0.000000 -0.000000 0.000001 -0.000000 57.213155 -6.815777 3.921539 7.355122 -0.262509 0.115493 7.354168 -0.272965 0.088171 -17.179442 1.813124 -1.871072 -18.867334 3.233278 14.202121 -0.000001 -0.000001 -0.000000 -0.000001 -0.000001 -0.000000 -0.000001 -0.000001 -0.000000 13.417873 -24.217435 22.590106 -114.806983 -15.316861 -38.163317 -0.000113 -72.040082 -0.000119 -121.192404 -3.149634 32.810248 4.709219 9.560365 3.111991 19.473182 -1.474893 7.636918 -0.000001 -0.000005 0.000002 -0.212816 3.933728 -36.747131 2.942143 5.078917 -60.144617 -0.000003 -0.000000 -0.000004 0.405914 5.507070 -52.453175 3.387138 5.308599 -65.057443 0.000002 -0.000001 0.000000 -0.074379 5.736790 -61.061420 4.055028 5.569492 -72.094901 -0.000000 0.000002 -0.000000 -6.565565 4.545145 -72.425202 3.299639 5.267225 -64.107835 -0.000001 -0.000001 -0.000006 -0.000002 -0.000000 -0.000001 0.411330 29.288271 10.460499 -76.533458 44.981461 43.134407 0.000262 109.190027 -0.000276 -36.325931 -33.629379 -23.999808 8.377163 -4.904124 11.022003 21.620197 -18.183890 -18.379218 0.000000 -0.000001 0.000001 -0.920035 1.683587 12.434989 0.748125 -2.533460 32.898269 0.000001 0.000000 0.000000 3.413053 -7.186267 51.650242 6.296816 -4.359578 110.634707 0.000001 0.000001 -0.000000 -3.349046 -2.600434 57.010585 5.440873 -4.590881 99.698161 -0.000001 -0.000001 0.000002 -3.996434 -3.303921 64.593857 4.058844 -4.618685 82.610523 0.000001 -0.000002 -0.000002 -0.000001 -0.000002 -0.000001 -0.000001 -0.000000 0.000000 -0.000001 -0.000000 0.000000 -0.000001 -0.000000 0.000000 -0.000001 -0.000000 0.000000 -0.000001 -0.000000 0.000002 0.000001 -0.000000 0.000002 -0.000001 -0.000000 0.000000 -0.000001 -0.000000 0.000002 0.000001 -0.000000 0.000002 0.000002 0.000000 -0.000001 0.000002 0.000000 -0.000001 -0.000000 -0.000001 -0.000000 
0.036431 63.322563 8.238416 -2.143105 -18.708240 3.558941 0.000000 0.000000 -0.000001 -77.415167 10.269515 11.114500 75.210164 -4.689524 2.046071 6.773809 1.174044 4.610630 -0.000000 0.000000 0.000001 -0.000000 0.000000 0.000001 -0.000000 -0.000000 -0.000000 -59.269001 -1.104953 4.482997 83.894824 -6.544567 -9.962142 -21.548974 -16.281233 -2.535380 0.000000 0.000000 0.000000 0.000000 0.000000 0.000000 -0.000000 -0.000001 0.000000 57.432663 -7.255590 3.324449 7.382020 -0.256427 0.051277 7.380964 -0.264816 0.023275 -17.172824 1.820218 -2.138393 -19.458471 2.669266 14.492372 0.000001 -0.000002 0.000001 0.000001 -0.000002 0.000001 0.000001 -0.000002 0.000001 13.366650 -24.202567 22.631069 -115.573795 -15.248018 -38.366798 -0.000118 -72.099573 -0.000131 -120.766665 -3.008362 33.145310 4.709221 9.560367 3.111991 19.473185 -1.474892 7.636922 0.000002 -0.000001 0.000002 -0.212818 3.933719 -36.747138 2.942143 5.078909 -60.144617 -0.000000 -0.000000 -0.000000 0.405915 5.507065 -52.453179 3.387139 5.308596 -65.057449 0.000007 0.000002 -0.000001 -0.074378 5.736786 -61.061420 4.055019 5.569496 -72.094907 -0.000003 -0.000000 -0.000000 -6.565567 4.545142 -72.425209 3.299638 5.267224 -64.107835 0.000001 0.000001 -0.000003 -0.000002 -0.000001 0.000000 0.457412 29.060355 10.268961 -77.195208 45.264418 43.541472 0.000352 109.040671 -0.000381 -36.208513 -33.447563 -24.000416 8.377164 -4.904124 11.022002 21.620194 -18.183888 -18.379216 0.000003 -0.000001 -0.000001 -0.920032 1.683586 12.434993 0.748125 -2.533458 32.898269 -0.000001 0.000000 -0.000002 3.413054 -7.186267 51.650242 6.296816 -4.359578 110.634701 0.000001 0.000001 0.000002 -3.349046 -2.600436 57.010585 5.440871 -4.590882 99.698168 -0.000001 0.000000 0.000004 -3.996435 -3.303922 64.593857 4.058842 -4.618685 82.610530 -0.000001 -0.000002 -0.000002 -0.000001 -0.000001 0.000001 0.000001 -0.000000 -0.000000 0.000001 -0.000000 -0.000000 0.000001 -0.000000 -0.000000 0.000001 -0.000000 -0.000000 0.000001 -0.000000 -0.000001 0.000003 -0.000001 -0.000001 0.000001 -0.000000 -0.000000 0.000001 -0.000000 -0.000001 0.000003 -0.000001 -0.000001 -0.000001 0.000000 -0.000000 -0.000001 0.000000 -0.000000 0.000000 0.000000 -0.000001 
